<svg width="316" height="411" viewBox="0 0 316 411" fill="none" xmlns="http://www.w3.org/2000/svg">
<mask id="path-1-inside-1_175_326" fill="white">
<path d="M0 5.99999C0 2.68629 2.68629 0 6 0H310C313.314 0 316 2.68629 316 6V404.818C316 408.132 313.314 410.818 310 410.818H6C2.6863 410.818 0 408.132 0 404.818V5.99999Z"/>
</mask>
<path d="M0 5.99999C0 2.68629 2.68629 0 6 0H310C313.314 0 316 2.68629 316 6V404.818C316 408.132 313.314 410.818 310 410.818H6C2.6863 410.818 0 408.132 0 404.818V5.99999Z" fill="#1A1F1B"/>
<path d="M108.812 60.3633V63H97.1406V60.75L102.66 54.832C103.215 54.2148 103.652 53.6719 103.973 53.2031C104.293 52.7266 104.523 52.3008 104.664 51.9258C104.812 51.543 104.887 51.1797 104.887 50.8359C104.887 50.3203 104.801 49.8789 104.629 49.5117C104.457 49.1367 104.203 48.8477 103.867 48.6445C103.539 48.4414 103.133 48.3398 102.648 48.3398C102.133 48.3398 101.688 48.4648 101.312 48.7148C100.945 48.9648 100.664 49.3125 100.469 49.7578C100.281 50.2031 100.188 50.707 100.188 51.2695H96.8008C96.8008 50.2539 97.043 49.3242 97.5273 48.4805C98.0117 47.6289 98.6953 46.9531 99.5781 46.4531C100.461 45.9453 101.508 45.6914 102.719 45.6914C103.914 45.6914 104.922 45.8867 105.742 46.2773C106.57 46.6602 107.195 47.2148 107.617 47.9414C108.047 48.6602 108.262 49.5195 108.262 50.5195C108.262 51.082 108.172 51.6328 107.992 52.1719C107.812 52.7031 107.555 53.2344 107.219 53.7656C106.891 54.2891 106.492 54.8203 106.023 55.3594C105.555 55.8984 105.035 56.457 104.465 57.0352L101.5 60.3633H108.812ZM122.594 60.3633V63H110.922V60.75L116.441 54.832C116.996 54.2148 117.434 53.6719 117.754 53.2031C118.074 52.7266 118.305 52.3008 118.445 51.9258C118.594 51.543 118.668 51.1797 118.668 50.8359C118.668 50.3203 118.582 49.8789 118.41 49.5117C118.238 49.1367 117.984 48.8477 117.648 48.6445C117.32 48.4414 116.914 48.3398 116.43 48.3398C115.914 48.3398 115.469 48.4648 115.094 48.7148C114.727 48.9648 114.445 49.3125 114.25 49.7578C114.062 50.2031 113.969 50.707 113.969 51.2695H110.582C110.582 50.2539 110.824 49.3242 111.309 48.4805C111.793 47.6289 112.477 46.9531 113.359 46.4531C114.242 45.9453 115.289 45.6914 116.5 45.6914C117.695 45.6914 118.703 45.8867 119.523 46.2773C120.352 46.6602 120.977 47.2148 121.398 47.9414C121.828 48.6602 122.043 49.5195 122.043 50.5195C122.043 51.082 121.953 51.6328 121.773 52.1719C121.594 52.7031 121.336 53.2344 121 53.7656C120.672 54.2891 120.273 54.8203 119.805 55.3594C119.336 55.8984 118.816 56.457 118.246 57.0352L115.281 60.3633H122.594ZM132.133 45.9375L125.875 64.4648H123.367L129.625 45.9375H132.133ZM141.836 45.9023V63H138.461V49.793L134.406 51.082V48.4219L141.473 45.9023H141.836ZM155.617 45.9023V63H152.242V49.793L148.188 51.082V48.4219L155.254 45.9023H155.617Z" fill="#F7DD43"/>
<path d="M181.339 50.0469V60H179.295V50.0469H181.339ZM184.401 50.0469V51.6533H176.28V50.0469H184.401ZM192.249 58.4004V60H186.951V58.4004H192.249ZM187.621 50.0469V60H185.57V50.0469H187.621ZM191.559 54.1006V55.6592H186.951V54.1006H191.559ZM192.242 50.0469V51.6533H186.951V50.0469H192.242ZM193.445 50.0469H197.157C197.918 50.0469 198.572 50.1608 199.119 50.3887C199.671 50.6165 200.094 50.9538 200.391 51.4004C200.687 51.847 200.835 52.3962 200.835 53.0479C200.835 53.5811 200.744 54.0391 200.562 54.4219C200.384 54.8001 200.131 55.1169 199.803 55.3721C199.479 55.6227 199.099 55.8232 198.661 55.9736L198.012 56.3154H194.785L194.771 54.7158H197.171C197.531 54.7158 197.829 54.652 198.066 54.5244C198.303 54.3968 198.481 54.2191 198.6 53.9912C198.723 53.7633 198.784 53.499 198.784 53.1982C198.784 52.8792 198.725 52.6035 198.606 52.3711C198.488 52.1387 198.308 51.9609 198.066 51.8379C197.825 51.7148 197.522 51.6533 197.157 51.6533H195.496V60H193.445V50.0469ZM199.01 60L196.74 55.5635L198.907 55.5498L201.204 59.9043V60H199.01ZM208.184 56.6982H210.228C210.187 57.3682 210.002 57.9629 209.674 58.4824C209.35 59.002 208.897 59.4076 208.313 59.6992C207.735 59.9909 207.037 60.1367 206.222 60.1367C205.584 60.1367 205.012 60.0273 204.506 59.8086C204 59.5853 203.567 59.2663 203.207 58.8516C202.852 58.4368 202.58 57.9355 202.394 57.3477C202.207 56.7598 202.113 56.1012 202.113 55.3721V54.6816C202.113 53.9525 202.209 53.2939 202.4 52.7061C202.596 52.1136 202.874 51.61 203.234 51.1953C203.599 50.7806 204.034 50.4616 204.54 50.2383C205.046 50.015 205.611 49.9033 206.235 49.9033C207.065 49.9033 207.764 50.0537 208.334 50.3545C208.908 50.6553 209.353 51.07 209.667 51.5986C209.986 52.1273 210.177 52.7288 210.241 53.4033H208.19C208.168 53.0023 208.088 52.6628 207.951 52.3848C207.814 52.1022 207.607 51.8903 207.329 51.749C207.056 51.6032 206.691 51.5303 206.235 51.5303C205.894 51.5303 205.595 51.5941 205.34 51.7217C205.085 51.8493 204.87 52.043 204.697 52.3027C204.524 52.5625 204.394 52.8906 204.308 53.2871C204.226 53.679 204.185 54.1393 204.185 54.668V55.3721C204.185 55.887 204.223 56.3405 204.301 56.7324C204.378 57.1198 204.497 57.4479 204.656 57.7168C204.82 57.9811 205.03 58.1816 205.285 58.3184C205.545 58.4505 205.857 58.5166 206.222 58.5166C206.65 58.5166 207.003 58.4482 207.281 58.3115C207.559 58.1748 207.771 57.972 207.917 57.7031C208.067 57.4342 208.156 57.0993 208.184 56.6982ZM205.49 59.9727H206.974L206.898 60.376C207.158 60.4215 207.395 60.5309 207.609 60.7041C207.824 60.8773 207.931 61.1621 207.931 61.5586C207.931 61.8001 207.878 62.0189 207.773 62.2148C207.673 62.4108 207.523 62.5794 207.322 62.7207C207.122 62.8665 206.871 62.9759 206.57 63.0488C206.27 63.1263 205.923 63.165 205.531 63.165L205.483 62.0713C205.629 62.0713 205.761 62.0508 205.88 62.0098C205.998 61.9688 206.092 61.9049 206.16 61.8184C206.229 61.7363 206.263 61.627 206.263 61.4902C206.263 61.3626 206.229 61.2624 206.16 61.1895C206.092 61.1165 205.985 61.0618 205.839 61.0254C205.698 60.9889 205.511 60.9639 205.278 60.9502L205.49 59.9727ZM215.621 51.749L212.914 60H210.733L214.432 50.0469H215.819L215.621 51.749ZM217.87 60L215.156 51.749L214.938 50.0469H216.339L220.058 60H217.87ZM217.747 56.2949V57.9014H212.49V56.2949H217.747Z" fill="#E1E1E6"/>
<rect x="79.5" y="32.5" width="157" height="45" rx="5.5" stroke="#047C3F"/>
<g clip-path="url(#clip0_175_326)">
<path d="M48 181C61.8071 181 73 169.807 73 156C73 142.193 61.8071 131 48 131C34.1929 131 23 142.193 23 156C23 169.807 34.1929 181 48 181Z" fill="#6DA544"/>
<path d="M47.9998 140.782L68.652 156L47.9998 171.217L27.3477 156L47.9998 140.782Z" fill="#FFDA44"/>
<path d="M48.0003 164.696C52.8027 164.696 56.6959 160.803 56.6959 156C56.6959 151.198 52.8027 147.305 48.0003 147.305C43.1978 147.305 39.3047 151.198 39.3047 156C39.3047 160.803 43.1978 164.696 48.0003 164.696Z" fill="#F0F0F0"/>
<path d="M43.6517 155.457C42.1396 155.457 40.6803 155.687 39.3066 156.114C39.3675 160.864 43.2351 164.696 47.9995 164.696C50.9456 164.696 53.5476 163.23 55.1205 160.988C52.4294 157.62 48.2887 155.457 43.6517 155.457Z" fill="#0052B4"/>
<path d="M56.534 157.666C56.6387 157.127 56.6952 156.57 56.6952 156C56.6952 151.198 52.8021 147.305 47.9996 147.305C44.4162 147.305 41.34 149.473 40.0088 152.568C41.1855 152.324 42.4039 152.196 43.6519 152.196C48.7023 152.196 53.2713 154.295 56.534 157.666Z" fill="#0052B4"/>
</g>
<path d="M130.174 153.365V158.041C130.174 159.881 129.957 161.48 129.523 162.84C129.102 164.199 128.492 165.324 127.695 166.215C126.91 167.105 125.973 167.768 124.883 168.201C123.793 168.635 122.592 168.852 121.279 168.852C120.225 168.852 119.24 168.717 118.326 168.447C117.412 168.166 116.586 167.744 115.848 167.182C115.121 166.607 114.494 165.893 113.967 165.037C113.439 164.182 113.035 163.174 112.754 162.014C112.473 160.842 112.332 159.518 112.332 158.041V153.365C112.332 151.514 112.543 149.914 112.965 148.566C113.398 147.207 114.014 146.082 114.811 145.191C115.607 144.301 116.551 143.639 117.641 143.205C118.73 142.771 119.932 142.555 121.244 142.555C122.299 142.555 123.277 142.695 124.18 142.977C125.094 143.246 125.92 143.668 126.658 144.242C127.396 144.805 128.023 145.514 128.539 146.369C129.066 147.225 129.471 148.238 129.752 149.41C130.033 150.57 130.174 151.889 130.174 153.365ZM124.25 158.762V152.609C124.25 151.789 124.203 151.074 124.109 150.465C124.027 149.855 123.898 149.34 123.723 148.918C123.559 148.496 123.354 148.156 123.107 147.898C122.861 147.629 122.58 147.436 122.264 147.318C121.959 147.189 121.619 147.125 121.244 147.125C120.775 147.125 120.354 147.225 119.979 147.424C119.615 147.611 119.305 147.916 119.047 148.338C118.789 148.76 118.59 149.322 118.449 150.025C118.32 150.729 118.256 151.59 118.256 152.609V158.762C118.256 159.594 118.297 160.32 118.379 160.941C118.473 161.551 118.602 162.072 118.766 162.506C118.941 162.928 119.152 163.273 119.398 163.543C119.645 163.801 119.926 163.988 120.242 164.105C120.559 164.223 120.904 164.281 121.279 164.281C121.736 164.281 122.146 164.188 122.51 164C122.873 163.812 123.184 163.508 123.441 163.086C123.711 162.652 123.91 162.084 124.039 161.381C124.18 160.666 124.25 159.793 124.25 158.762ZM151.057 161.451C151.057 163.08 150.67 164.445 149.896 165.547C149.135 166.648 148.08 167.475 146.732 168.025C145.396 168.576 143.873 168.852 142.162 168.852C140.463 168.852 138.934 168.576 137.574 168.025C136.227 167.475 135.16 166.648 134.375 165.547C133.59 164.445 133.197 163.08 133.197 161.451C133.197 160.338 133.42 159.342 133.865 158.463C134.322 157.572 134.955 156.816 135.764 156.195C136.572 155.574 137.516 155.1 138.594 154.771C139.684 154.443 140.861 154.279 142.127 154.279C143.838 154.279 145.367 154.572 146.715 155.158C148.062 155.732 149.123 156.553 149.896 157.619C150.67 158.686 151.057 159.963 151.057 161.451ZM145.098 160.977C145.098 160.273 144.975 159.682 144.729 159.201C144.482 158.709 144.137 158.334 143.691 158.076C143.246 157.818 142.725 157.689 142.127 157.689C141.541 157.689 141.02 157.818 140.562 158.076C140.117 158.334 139.766 158.709 139.508 159.201C139.262 159.682 139.139 160.273 139.139 160.977C139.139 161.656 139.268 162.248 139.525 162.752C139.783 163.244 140.135 163.625 140.58 163.895C141.037 164.152 141.564 164.281 142.162 164.281C142.76 164.281 143.275 164.152 143.709 163.895C144.154 163.625 144.494 163.244 144.729 162.752C144.975 162.248 145.098 161.656 145.098 160.977ZM150.529 149.744C150.529 151.08 150.172 152.252 149.457 153.26C148.754 154.256 147.77 155.035 146.504 155.598C145.25 156.148 143.803 156.424 142.162 156.424C140.533 156.424 139.08 156.148 137.803 155.598C136.537 155.035 135.541 154.256 134.814 153.26C134.1 152.252 133.742 151.08 133.742 149.744C133.742 148.174 134.1 146.855 134.814 145.789C135.541 144.723 136.537 143.914 137.803 143.363C139.068 142.812 140.51 142.537 142.127 142.537C143.768 142.537 145.221 142.812 146.486 143.363C147.752 143.914 148.742 144.723 149.457 145.789C150.172 146.855 150.529 148.174 150.529 149.744ZM144.605 150.061C144.605 149.451 144.512 148.93 144.324 148.496C144.137 148.051 143.861 147.711 143.498 147.477C143.135 147.23 142.678 147.107 142.127 147.107C141.6 147.107 141.154 147.225 140.791 147.459C140.428 147.693 140.152 148.033 139.965 148.479C139.777 148.912 139.684 149.439 139.684 150.061C139.684 150.67 139.777 151.203 139.965 151.66C140.152 152.117 140.428 152.475 140.791 152.732C141.166 152.99 141.623 153.119 142.162 153.119C142.713 153.119 143.164 152.99 143.516 152.732C143.879 152.475 144.148 152.117 144.324 151.66C144.512 151.203 144.605 150.67 144.605 150.061ZM154.66 165.723C154.66 164.879 154.965 164.176 155.574 163.613C156.184 163.039 156.969 162.752 157.93 162.752C158.902 162.752 159.688 163.039 160.285 163.613C160.895 164.176 161.199 164.879 161.199 165.723C161.199 166.566 160.895 167.275 160.285 167.85C159.688 168.412 158.902 168.693 157.93 168.693C156.969 168.693 156.184 168.412 155.574 167.85C154.965 167.275 154.66 166.566 154.66 165.723ZM154.66 151.695C154.66 150.852 154.965 150.148 155.574 149.586C156.184 149.012 156.969 148.725 157.93 148.725C158.902 148.725 159.688 149.012 160.285 149.586C160.895 150.148 161.199 150.852 161.199 151.695C161.199 152.539 160.895 153.248 160.285 153.822C159.688 154.385 158.902 154.666 157.93 154.666C156.969 154.666 156.184 154.385 155.574 153.822C154.965 153.248 154.66 152.539 154.66 151.695ZM182.768 153.365V158.041C182.768 159.881 182.551 161.48 182.117 162.84C181.695 164.199 181.086 165.324 180.289 166.215C179.504 167.105 178.566 167.768 177.477 168.201C176.387 168.635 175.186 168.852 173.873 168.852C172.818 168.852 171.834 168.717 170.92 168.447C170.006 168.166 169.18 167.744 168.441 167.182C167.715 166.607 167.088 165.893 166.561 165.037C166.033 164.182 165.629 163.174 165.348 162.014C165.066 160.842 164.926 159.518 164.926 158.041V153.365C164.926 151.514 165.137 149.914 165.559 148.566C165.992 147.207 166.607 146.082 167.404 145.191C168.201 144.301 169.145 143.639 170.234 143.205C171.324 142.771 172.525 142.555 173.838 142.555C174.893 142.555 175.871 142.695 176.773 142.977C177.688 143.246 178.514 143.668 179.252 144.242C179.99 144.805 180.617 145.514 181.133 146.369C181.66 147.225 182.064 148.238 182.346 149.41C182.627 150.57 182.768 151.889 182.768 153.365ZM176.844 158.762V152.609C176.844 151.789 176.797 151.074 176.703 150.465C176.621 149.855 176.492 149.34 176.316 148.918C176.152 148.496 175.947 148.156 175.701 147.898C175.455 147.629 175.174 147.436 174.857 147.318C174.553 147.189 174.213 147.125 173.838 147.125C173.369 147.125 172.947 147.225 172.572 147.424C172.209 147.611 171.898 147.916 171.641 148.338C171.383 148.76 171.184 149.322 171.043 150.025C170.914 150.729 170.85 151.59 170.85 152.609V158.762C170.85 159.594 170.891 160.32 170.973 160.941C171.066 161.551 171.195 162.072 171.359 162.506C171.535 162.928 171.746 163.273 171.992 163.543C172.238 163.801 172.52 163.988 172.836 164.105C173.152 164.223 173.498 164.281 173.873 164.281C174.33 164.281 174.74 164.188 175.104 164C175.467 163.812 175.777 163.508 176.035 163.086C176.305 162.652 176.504 162.084 176.633 161.381C176.773 160.666 176.844 159.793 176.844 158.762ZM203.65 153.365V158.041C203.65 159.881 203.434 161.48 203 162.84C202.578 164.199 201.969 165.324 201.172 166.215C200.387 167.105 199.449 167.768 198.359 168.201C197.27 168.635 196.068 168.852 194.756 168.852C193.701 168.852 192.717 168.717 191.803 168.447C190.889 168.166 190.062 167.744 189.324 167.182C188.598 166.607 187.971 165.893 187.443 165.037C186.916 164.182 186.512 163.174 186.23 162.014C185.949 160.842 185.809 159.518 185.809 158.041V153.365C185.809 151.514 186.02 149.914 186.441 148.566C186.875 147.207 187.49 146.082 188.287 145.191C189.084 144.301 190.027 143.639 191.117 143.205C192.207 142.771 193.408 142.555 194.721 142.555C195.775 142.555 196.754 142.695 197.656 142.977C198.57 143.246 199.396 143.668 200.135 144.242C200.873 144.805 201.5 145.514 202.016 146.369C202.543 147.225 202.947 148.238 203.229 149.41C203.51 150.57 203.65 151.889 203.65 153.365ZM197.727 158.762V152.609C197.727 151.789 197.68 151.074 197.586 150.465C197.504 149.855 197.375 149.34 197.199 148.918C197.035 148.496 196.83 148.156 196.584 147.898C196.338 147.629 196.057 147.436 195.74 147.318C195.436 147.189 195.096 147.125 194.721 147.125C194.252 147.125 193.83 147.225 193.455 147.424C193.092 147.611 192.781 147.916 192.523 148.338C192.266 148.76 192.066 149.322 191.926 150.025C191.797 150.729 191.732 151.59 191.732 152.609V158.762C191.732 159.594 191.773 160.32 191.855 160.941C191.949 161.551 192.078 162.072 192.242 162.506C192.418 162.928 192.629 163.273 192.875 163.543C193.121 163.801 193.402 163.988 193.719 164.105C194.035 164.223 194.381 164.281 194.756 164.281C195.213 164.281 195.623 164.188 195.986 164C196.35 163.812 196.66 163.508 196.918 163.086C197.188 162.652 197.387 162.084 197.516 161.381C197.656 160.666 197.727 159.793 197.727 158.762Z" fill="#E1E1E6"/>
<g clip-path="url(#clip1_175_326)">
<path d="M278.87 133.481C275.583 131.891 271.896 131 268 131C264.105 131 260.418 131.891 257.131 133.481L254.957 156L257.131 178.519C260.418 180.109 264.105 181 268 181C271.896 181 275.583 180.109 278.87 178.519L281.044 156L278.87 133.481Z" fill="#D80027"/>
<path d="M267.999 147.305L270.158 153.947H277.143L271.492 158.053L273.65 164.696L267.999 160.59L262.349 164.696L264.507 158.053L258.856 153.947H265.841L267.999 147.305Z" fill="#FFDA44"/>
<path d="M257.13 133.481C248.768 137.525 243 146.088 243 156C243 165.911 248.768 174.475 257.13 178.518V133.481Z" fill="#496E2D"/>
<path d="M278.869 133.481V178.518C287.231 174.475 293 165.911 293 156C293 146.088 287.231 137.525 278.869 133.481Z" fill="#FFDA44"/>
</g>
<line x1="23.0027" y1="204.5" x2="293.001" y2="205.409" stroke="#323238"/>
<g clip-path="url(#clip2_175_326)">
<path d="M24.555 246.214C23.5501 248.922 23 251.852 23 254.91C23 257.968 23.5501 260.897 24.555 263.605L48 265.779L71.445 263.605C72.4499 260.897 73 257.968 73 254.91C73 251.852 72.4499 248.922 71.445 246.214L48 244.04L24.555 246.214Z" fill="#F0F0F0"/>
<path d="M47.9996 229.909C37.2506 229.909 28.0869 236.694 24.5547 246.214H71.4448C67.9123 236.694 58.7488 229.909 47.9996 229.909Z" fill="#D80027"/>
<path d="M47.9996 279.909C58.7488 279.909 67.9123 273.125 71.4447 263.604H24.5547C28.0869 273.125 37.2506 279.909 47.9996 279.909Z" fill="#6DA544"/>
</g>
<path d="M125.516 241.815V267.409H119.592V248.495L113.756 250.2V245.7L124.971 241.815H125.516ZM138.682 252.134H141.564C142.303 252.134 142.906 252.005 143.375 251.747C143.855 251.478 144.213 251.103 144.447 250.622C144.682 250.13 144.799 249.55 144.799 248.882C144.799 248.366 144.688 247.892 144.465 247.458C144.254 247.024 143.926 246.679 143.48 246.421C143.035 246.151 142.467 246.017 141.775 246.017C141.307 246.017 140.85 246.116 140.404 246.315C139.959 246.503 139.59 246.772 139.297 247.124C139.016 247.476 138.875 247.903 138.875 248.407H132.934C132.934 246.954 133.332 245.712 134.129 244.681C134.938 243.638 135.998 242.841 137.311 242.29C138.635 241.728 140.059 241.446 141.582 241.446C143.398 241.446 144.992 241.728 146.363 242.29C147.734 242.841 148.801 243.661 149.562 244.751C150.336 245.829 150.723 247.165 150.723 248.759C150.723 249.638 150.518 250.464 150.107 251.237C149.697 252.011 149.123 252.69 148.385 253.276C147.646 253.862 146.779 254.325 145.783 254.665C144.799 254.993 143.721 255.157 142.549 255.157H138.682V252.134ZM138.682 256.546V253.593H142.549C143.826 253.593 144.992 253.739 146.047 254.032C147.102 254.313 148.01 254.735 148.771 255.298C149.533 255.86 150.119 256.558 150.529 257.39C150.939 258.21 151.145 259.153 151.145 260.22C151.145 261.415 150.904 262.481 150.424 263.419C149.943 264.356 149.27 265.147 148.402 265.792C147.535 266.437 146.521 266.929 145.361 267.269C144.201 267.597 142.941 267.761 141.582 267.761C140.516 267.761 139.449 267.62 138.383 267.339C137.316 267.046 136.344 266.601 135.465 266.003C134.586 265.394 133.877 264.62 133.338 263.683C132.811 262.733 132.547 261.603 132.547 260.29H138.488C138.488 260.829 138.635 261.321 138.928 261.767C139.232 262.2 139.637 262.546 140.141 262.804C140.645 263.062 141.189 263.19 141.775 263.19C142.502 263.19 143.117 263.056 143.621 262.786C144.137 262.505 144.529 262.13 144.799 261.661C145.068 261.192 145.203 260.671 145.203 260.097C145.203 259.229 145.057 258.538 144.764 258.022C144.482 257.507 144.066 257.132 143.516 256.897C142.977 256.663 142.326 256.546 141.564 256.546H138.682ZM154.66 264.632C154.66 263.788 154.965 263.085 155.574 262.522C156.184 261.948 156.969 261.661 157.93 261.661C158.902 261.661 159.688 261.948 160.285 262.522C160.895 263.085 161.199 263.788 161.199 264.632C161.199 265.476 160.895 266.185 160.285 266.759C159.688 267.321 158.902 267.603 157.93 267.603C156.969 267.603 156.184 267.321 155.574 266.759C154.965 266.185 154.66 265.476 154.66 264.632ZM154.66 250.604C154.66 249.761 154.965 249.058 155.574 248.495C156.184 247.921 156.969 247.634 157.93 247.634C158.902 247.634 159.688 247.921 160.285 248.495C160.895 249.058 161.199 249.761 161.199 250.604C161.199 251.448 160.895 252.157 160.285 252.731C159.688 253.294 158.902 253.575 157.93 253.575C156.969 253.575 156.184 253.294 155.574 252.731C154.965 252.157 154.66 251.448 154.66 250.604ZM182.768 252.274V256.95C182.768 258.79 182.551 260.39 182.117 261.749C181.695 263.108 181.086 264.233 180.289 265.124C179.504 266.015 178.566 266.677 177.477 267.11C176.387 267.544 175.186 267.761 173.873 267.761C172.818 267.761 171.834 267.626 170.92 267.356C170.006 267.075 169.18 266.653 168.441 266.091C167.715 265.517 167.088 264.802 166.561 263.946C166.033 263.091 165.629 262.083 165.348 260.923C165.066 259.751 164.926 258.427 164.926 256.95V252.274C164.926 250.423 165.137 248.823 165.559 247.476C165.992 246.116 166.607 244.991 167.404 244.101C168.201 243.21 169.145 242.548 170.234 242.114C171.324 241.681 172.525 241.464 173.838 241.464C174.893 241.464 175.871 241.604 176.773 241.886C177.688 242.155 178.514 242.577 179.252 243.151C179.99 243.714 180.617 244.423 181.133 245.278C181.66 246.134 182.064 247.147 182.346 248.319C182.627 249.479 182.768 250.798 182.768 252.274ZM176.844 257.671V251.519C176.844 250.698 176.797 249.983 176.703 249.374C176.621 248.765 176.492 248.249 176.316 247.827C176.152 247.405 175.947 247.065 175.701 246.808C175.455 246.538 175.174 246.345 174.857 246.228C174.553 246.099 174.213 246.034 173.838 246.034C173.369 246.034 172.947 246.134 172.572 246.333C172.209 246.521 171.898 246.825 171.641 247.247C171.383 247.669 171.184 248.231 171.043 248.935C170.914 249.638 170.85 250.499 170.85 251.519V257.671C170.85 258.503 170.891 259.229 170.973 259.851C171.066 260.46 171.195 260.981 171.359 261.415C171.535 261.837 171.746 262.183 171.992 262.452C172.238 262.71 172.52 262.897 172.836 263.015C173.152 263.132 173.498 263.19 173.873 263.19C174.33 263.19 174.74 263.097 175.104 262.909C175.467 262.722 175.777 262.417 176.035 261.995C176.305 261.562 176.504 260.993 176.633 260.29C176.773 259.575 176.844 258.702 176.844 257.671ZM203.65 252.274V256.95C203.65 258.79 203.434 260.39 203 261.749C202.578 263.108 201.969 264.233 201.172 265.124C200.387 266.015 199.449 266.677 198.359 267.11C197.27 267.544 196.068 267.761 194.756 267.761C193.701 267.761 192.717 267.626 191.803 267.356C190.889 267.075 190.062 266.653 189.324 266.091C188.598 265.517 187.971 264.802 187.443 263.946C186.916 263.091 186.512 262.083 186.23 260.923C185.949 259.751 185.809 258.427 185.809 256.95V252.274C185.809 250.423 186.02 248.823 186.441 247.476C186.875 246.116 187.49 244.991 188.287 244.101C189.084 243.21 190.027 242.548 191.117 242.114C192.207 241.681 193.408 241.464 194.721 241.464C195.775 241.464 196.754 241.604 197.656 241.886C198.57 242.155 199.396 242.577 200.135 243.151C200.873 243.714 201.5 244.423 202.016 245.278C202.543 246.134 202.947 247.147 203.229 248.319C203.51 249.479 203.65 250.798 203.65 252.274ZM197.727 257.671V251.519C197.727 250.698 197.68 249.983 197.586 249.374C197.504 248.765 197.375 248.249 197.199 247.827C197.035 247.405 196.83 247.065 196.584 246.808C196.338 246.538 196.057 246.345 195.74 246.228C195.436 246.099 195.096 246.034 194.721 246.034C194.252 246.034 193.83 246.134 193.455 246.333C193.092 246.521 192.781 246.825 192.523 247.247C192.266 247.669 192.066 248.231 191.926 248.935C191.797 249.638 191.732 250.499 191.732 251.519V257.671C191.732 258.503 191.773 259.229 191.855 259.851C191.949 260.46 192.078 260.981 192.242 261.415C192.418 261.837 192.629 262.183 192.875 262.452C193.121 262.71 193.402 262.897 193.719 263.015C194.035 263.132 194.381 263.19 194.756 263.19C195.213 263.19 195.623 263.097 195.986 262.909C196.35 262.722 196.66 262.417 196.918 261.995C197.188 261.562 197.387 260.993 197.516 260.29C197.656 259.575 197.727 258.702 197.727 257.671Z" fill="#E1E1E6"/>
<g clip-path="url(#clip3_175_326)">
<path d="M268 279.909C281.807 279.909 293 268.716 293 254.909C293 241.102 281.807 229.909 268 229.909C254.193 229.909 243 241.102 243 254.909C243 268.716 254.193 279.909 268 279.909Z" fill="#F0F0F0"/>
<path d="M268 229.909C258.088 229.909 249.524 235.677 245.48 244.04H290.519C286.475 235.677 277.911 229.909 268 229.909Z" fill="#338AF3"/>
<path d="M268 279.909C277.911 279.909 286.475 274.141 290.519 265.778H245.48C249.524 274.141 258.088 279.909 268 279.909Z" fill="#338AF3"/>
<path d="M275.472 254.909L272.418 256.345L274.044 259.302L270.729 258.668L270.309 262.017L268 259.554L265.69 262.017L265.27 258.668L261.955 259.302L263.58 256.345L260.527 254.909L263.581 253.473L261.955 250.516L265.27 251.15L265.69 247.801L268 250.264L270.309 247.801L270.729 251.15L274.044 250.516L272.419 253.473L275.472 254.909Z" fill="#FFDA44"/>
</g>
<line x1="23.0027" y1="303.409" x2="293.001" y2="304.318" stroke="#323238"/>
<g clip-path="url(#clip4_175_326)">
<path d="M23 353.818C23 340.011 34.193 328.818 48 328.818C61.807 328.818 73 340.011 73 353.818L48 355.992L23 353.818Z" fill="#FFDA44"/>
<path d="M26.3457 366.318C30.6685 373.79 38.747 378.818 48.0004 378.818C57.2538 378.818 65.3323 373.79 69.6551 366.318L48.0004 364.688L26.3457 366.318Z" fill="#D80027"/>
<path d="M69.6547 366.318C71.7818 362.641 73 358.372 73 353.818H23C23 358.372 24.2182 362.641 26.3453 366.318H69.6547Z" fill="#0052B4"/>
</g>
<path d="M130.262 361.748V366.318H112.402V362.451L120.629 353.803C121.355 352.971 121.941 352.227 122.387 351.57C122.832 350.902 123.154 350.299 123.354 349.76C123.564 349.221 123.67 348.734 123.67 348.301C123.67 347.562 123.559 346.947 123.336 346.455C123.125 345.951 122.809 345.57 122.387 345.312C121.977 345.055 121.467 344.926 120.857 344.926C120.248 344.926 119.715 345.102 119.258 345.453C118.801 345.805 118.443 346.285 118.186 346.895C117.939 347.504 117.816 348.189 117.816 348.951H111.875C111.875 347.381 112.256 345.945 113.018 344.645C113.791 343.344 114.863 342.307 116.234 341.533C117.605 340.748 119.193 340.355 120.998 340.355C122.885 340.355 124.467 340.648 125.744 341.234C127.021 341.82 127.982 342.67 128.627 343.783C129.283 344.885 129.611 346.215 129.611 347.773C129.611 348.664 129.471 349.52 129.189 350.34C128.908 351.16 128.504 351.975 127.977 352.783C127.449 353.58 126.805 354.4 126.043 355.244C125.293 356.088 124.438 356.984 123.477 357.934L120.172 361.748H130.262ZM151.057 351.184V355.859C151.057 357.699 150.84 359.299 150.406 360.658C149.984 362.018 149.375 363.143 148.578 364.033C147.793 364.924 146.855 365.586 145.766 366.02C144.676 366.453 143.475 366.67 142.162 366.67C141.107 366.67 140.123 366.535 139.209 366.266C138.295 365.984 137.469 365.562 136.73 365C136.004 364.426 135.377 363.711 134.85 362.855C134.322 362 133.918 360.992 133.637 359.832C133.355 358.66 133.215 357.336 133.215 355.859V351.184C133.215 349.332 133.426 347.732 133.848 346.385C134.281 345.025 134.896 343.9 135.693 343.01C136.49 342.119 137.434 341.457 138.523 341.023C139.613 340.59 140.814 340.373 142.127 340.373C143.182 340.373 144.16 340.514 145.062 340.795C145.977 341.064 146.803 341.486 147.541 342.061C148.279 342.623 148.906 343.332 149.422 344.188C149.949 345.043 150.354 346.057 150.635 347.229C150.916 348.389 151.057 349.707 151.057 351.184ZM145.133 356.58V350.428C145.133 349.607 145.086 348.893 144.992 348.283C144.91 347.674 144.781 347.158 144.605 346.736C144.441 346.314 144.236 345.975 143.99 345.717C143.744 345.447 143.463 345.254 143.146 345.137C142.842 345.008 142.502 344.943 142.127 344.943C141.658 344.943 141.236 345.043 140.861 345.242C140.498 345.43 140.188 345.734 139.93 346.156C139.672 346.578 139.473 347.141 139.332 347.844C139.203 348.547 139.139 349.408 139.139 350.428V356.58C139.139 357.412 139.18 358.139 139.262 358.76C139.355 359.369 139.484 359.891 139.648 360.324C139.824 360.746 140.035 361.092 140.281 361.361C140.527 361.619 140.809 361.807 141.125 361.924C141.441 362.041 141.787 362.1 142.162 362.1C142.619 362.1 143.029 362.006 143.393 361.818C143.756 361.631 144.066 361.326 144.324 360.904C144.594 360.471 144.793 359.902 144.922 359.199C145.062 358.484 145.133 357.611 145.133 356.58ZM154.66 363.541C154.66 362.697 154.965 361.994 155.574 361.432C156.184 360.857 156.969 360.57 157.93 360.57C158.902 360.57 159.688 360.857 160.285 361.432C160.895 361.994 161.199 362.697 161.199 363.541C161.199 364.385 160.895 365.094 160.285 365.668C159.688 366.23 158.902 366.512 157.93 366.512C156.969 366.512 156.184 366.23 155.574 365.668C154.965 365.094 154.66 364.385 154.66 363.541ZM154.66 349.514C154.66 348.67 154.965 347.967 155.574 347.404C156.184 346.83 156.969 346.543 157.93 346.543C158.902 346.543 159.688 346.83 160.285 347.404C160.895 347.967 161.199 348.67 161.199 349.514C161.199 350.357 160.895 351.066 160.285 351.641C159.688 352.203 158.902 352.484 157.93 352.484C156.969 352.484 156.184 352.203 155.574 351.641C154.965 351.066 154.66 350.357 154.66 349.514ZM182.768 351.184V355.859C182.768 357.699 182.551 359.299 182.117 360.658C181.695 362.018 181.086 363.143 180.289 364.033C179.504 364.924 178.566 365.586 177.477 366.02C176.387 366.453 175.186 366.67 173.873 366.67C172.818 366.67 171.834 366.535 170.92 366.266C170.006 365.984 169.18 365.562 168.441 365C167.715 364.426 167.088 363.711 166.561 362.855C166.033 362 165.629 360.992 165.348 359.832C165.066 358.66 164.926 357.336 164.926 355.859V351.184C164.926 349.332 165.137 347.732 165.559 346.385C165.992 345.025 166.607 343.9 167.404 343.01C168.201 342.119 169.145 341.457 170.234 341.023C171.324 340.59 172.525 340.373 173.838 340.373C174.893 340.373 175.871 340.514 176.773 340.795C177.688 341.064 178.514 341.486 179.252 342.061C179.99 342.623 180.617 343.332 181.133 344.188C181.66 345.043 182.064 346.057 182.346 347.229C182.627 348.389 182.768 349.707 182.768 351.184ZM176.844 356.58V350.428C176.844 349.607 176.797 348.893 176.703 348.283C176.621 347.674 176.492 347.158 176.316 346.736C176.152 346.314 175.947 345.975 175.701 345.717C175.455 345.447 175.174 345.254 174.857 345.137C174.553 345.008 174.213 344.943 173.838 344.943C173.369 344.943 172.947 345.043 172.572 345.242C172.209 345.43 171.898 345.734 171.641 346.156C171.383 346.578 171.184 347.141 171.043 347.844C170.914 348.547 170.85 349.408 170.85 350.428V356.58C170.85 357.412 170.891 358.139 170.973 358.76C171.066 359.369 171.195 359.891 171.359 360.324C171.535 360.746 171.746 361.092 171.992 361.361C172.238 361.619 172.52 361.807 172.836 361.924C173.152 362.041 173.498 362.1 173.873 362.1C174.33 362.1 174.74 362.006 175.104 361.818C175.467 361.631 175.777 361.326 176.035 360.904C176.305 360.471 176.504 359.902 176.633 359.199C176.773 358.484 176.844 357.611 176.844 356.58ZM203.65 351.184V355.859C203.65 357.699 203.434 359.299 203 360.658C202.578 362.018 201.969 363.143 201.172 364.033C200.387 364.924 199.449 365.586 198.359 366.02C197.27 366.453 196.068 366.67 194.756 366.67C193.701 366.67 192.717 366.535 191.803 366.266C190.889 365.984 190.062 365.562 189.324 365C188.598 364.426 187.971 363.711 187.443 362.855C186.916 362 186.512 360.992 186.23 359.832C185.949 358.66 185.809 357.336 185.809 355.859V351.184C185.809 349.332 186.02 347.732 186.441 346.385C186.875 345.025 187.49 343.9 188.287 343.01C189.084 342.119 190.027 341.457 191.117 341.023C192.207 340.59 193.408 340.373 194.721 340.373C195.775 340.373 196.754 340.514 197.656 340.795C198.57 341.064 199.396 341.486 200.135 342.061C200.873 342.623 201.5 343.332 202.016 344.188C202.543 345.043 202.947 346.057 203.229 347.229C203.51 348.389 203.65 349.707 203.65 351.184ZM197.727 356.58V350.428C197.727 349.607 197.68 348.893 197.586 348.283C197.504 347.674 197.375 347.158 197.199 346.736C197.035 346.314 196.83 345.975 196.584 345.717C196.338 345.447 196.057 345.254 195.74 345.137C195.436 345.008 195.096 344.943 194.721 344.943C194.252 344.943 193.83 345.043 193.455 345.242C193.092 345.43 192.781 345.734 192.523 346.156C192.266 346.578 192.066 347.141 191.926 347.844C191.797 348.547 191.732 349.408 191.732 350.428V356.58C191.732 357.412 191.773 358.139 191.855 358.76C191.949 359.369 192.078 359.891 192.242 360.324C192.418 360.746 192.629 361.092 192.875 361.361C193.121 361.619 193.402 361.807 193.719 361.924C194.035 362.041 194.381 362.1 194.756 362.1C195.213 362.1 195.623 362.006 195.986 361.818C196.35 361.631 196.66 361.326 196.918 360.904C197.188 360.471 197.387 359.902 197.516 359.199C197.656 358.484 197.727 357.611 197.727 356.58Z" fill="#E1E1E6"/>
<g clip-path="url(#clip5_175_326)">
<path d="M268 378.818C281.807 378.818 293 367.625 293 353.818C293 340.011 281.807 328.818 268 328.818C254.193 328.818 243 340.011 243 353.818C243 367.625 254.193 378.818 268 378.818Z" fill="#F0F0F0"/>
<path d="M268 364.688C274.003 364.688 278.87 359.822 278.87 353.819C278.87 347.816 274.003 342.949 268 342.949C261.997 342.949 257.131 347.816 257.131 353.819C257.131 359.822 261.997 364.688 268 364.688Z" fill="#D80027"/>
</g>
<path d="M0 0H316H0ZM316 404.818C316 409.236 312.418 412.818 308 412.818H8C3.58172 412.818 0 409.236 0 404.818C0 407.027 2.68629 408.818 6 408.818H310C313.314 408.818 316 407.027 316 404.818ZM0 410.818V0V410.818ZM316 0V410.818V0Z" fill="#047C3F" mask="url(#path-1-inside-1_175_326)"/>
<defs>
<clipPath id="clip0_175_326">
<rect width="50" height="50" fill="white" transform="translate(23 131)"/>
</clipPath>
<clipPath id="clip1_175_326">
<rect width="50" height="50" fill="white" transform="translate(243 131)"/>
</clipPath>
<clipPath id="clip2_175_326">
<rect width="50" height="50" fill="white" transform="translate(23 229.909)"/>
</clipPath>
<clipPath id="clip3_175_326">
<rect width="50" height="50" fill="white" transform="translate(243 229.909)"/>
</clipPath>
<clipPath id="clip4_175_326">
<rect width="50" height="50" fill="white" transform="translate(23 328.818)"/>
</clipPath>
<clipPath id="clip5_175_326">
<rect width="50" height="50" fill="white" transform="translate(243 328.818)"/>
</clipPath>
</defs>
</svg>
